<mxfile host="app.diagrams.net" modified="2023-07-28T09:44:45.179Z" agent="Mozilla/5.0 (Macintosh; Intel Mac OS X 10_15_7) AppleWebKit/537.36 (KHTML, like Gecko) Chrome/114.0.0.0 Safari/537.36" version="21.6.3" etag="R-QmlC1KOA9ypSfp5EQk" type="github">
  <diagram name="第 1 页" id="lbHyK5IdB7Bmq58c4Xi4">
    <mxGraphModel>
      <root>
        <mxCell id="0" />
        <mxCell id="1" parent="0" />
      </root>
    </mxGraphModel>
  </diagram>
</mxfile>
